# xmcd
#
# Track frame offsets:
#	150
#	21489
#	41959
#	60509
#	84033
#	103203
#	122866
#	142046
#	158906
#	180679
#	202693
#	225663
#	243176
#	269284
#	294956
#
# Disc length: 4281 seconds
#
# Revision: 0
# Processed by: cddbd v1.5.2PL0 Copyright (c) Steve Scherf et al.
# Submitted via: EasyCDDAExtractor 11.5.3.1
#
DISCID=cd10b70f
DTITLE=Sir Mack Rice - Get That Money
DYEAR=2006
DGENRE=Soul
TTITLE0=Yesterday Hero
TTITLE1=Get That Money
TTITLE2=Viagra Man
TTITLE3=Dark Skin Woman
TTITLE4=Honey Bad
TTITLE5=Cadillac Assembly Line
TTITLE6=Repect Yourself
TTITLE7=Mini-Skirt Minnie
TTITLE8=Mustang Sally
TTITLE9=Everything Looks Good Ain't Good
TTITLE10=2000 Woman
TTITLE11=Hong Kong Flu
TTITLE12=That Thang
TTITLE13=Little Red Cherokee
TTITLE14=Right Now America
EXTD=
EXTT0=
EXTT1=
EXTT2=
EXTT3=
EXTT4=
EXTT5=
EXTT6=
EXTT7=
EXTT8=
EXTT9=
EXTT10=
EXTT11=
EXTT12=
EXTT13=
EXTT14=
PLAYORDER=
